<svg xmlns="http://www.w3.org/2000/svg" width="87.053" height="108.907" viewBox="0 0 87.053 108.907">
  <g id="Robot" transform="translate(-9.474 -5.546)">
    <g id="Torso">
      <path id="Arm-right" d="M96.325,63.364a1.5,1.5,0,0,0-2.049-.549,5.11,5.11,0,0,1-3.4.674,2.94,2.94,0,0,1-2.383-4.127,5.108,5.108,0,0,1,2.284-2.608,1.5,1.5,0,0,0-1.5-2.6,8.117,8.117,0,0,0-3.6,4.171,6.347,6.347,0,0,0-.3,3.479c-6.786,2.824-13.8,2.223-19.714.515A20.06,20.06,0,0,1,67.927,66a36.077,36.077,0,0,0,7.3.782,29.219,29.219,0,0,0,11.5-2.285,6.213,6.213,0,0,0,3.633,1.953,7.359,7.359,0,0,0,1.268.109,8.319,8.319,0,0,0,4.144-1.141A1.5,1.5,0,0,0,96.325,63.364Z"/>
      <g id="Body">
        <g id="Rocket">
          <path id="Fire" d="M44.877,100.453c-2,2-3,6-3,6l4-2,4,10,4-10.015,4,2.016s-1-4-3-6a7.251,7.251,0,0,0-10,0Z"/>
          <path id="Pipe" d="M41.061,94.552a2.992,2.992,0,0,0,2.816,2h12a2.992,2.992,0,0,0,2.816-2Z"/>
        </g>
        <path id="Belly" d="M52.877,56.822v-2.27h-6v2.27a17.989,17.989,0,0,0-15,17.73v14a4,4,0,0,0,4,4h28a4,4,0,0,0,4-4v-14A17.989,17.989,0,0,0,52.877,56.822Zm-.269,26.289-1.637.945a2.189,2.189,0,0,1-2.189,0l-1.636-.945V79.962l2.731,1.508,2.731-1.508Zm5.269-4.305A2.188,2.188,0,0,1,56.782,80.7l-1.011.584V72.466a.472.472,0,0,0-.708-.409l-5.182,2.924-5.19-2.924a.472.472,0,0,0-.708.409v8.819L42.971,80.7a2.189,2.189,0,0,1-1.094-1.895V72.1a2.188,2.188,0,0,1,1.094-1.9l5.811-3.355a2.189,2.189,0,0,1,2.189,0L56.782,70.2a2.187,2.187,0,0,1,1.095,1.9Z"/>
      </g>
      <path id="Arm-left" d="M35.346,60.578c-8.935,3.754-15.306,9.572-18.564,16.9C13.7,77.2,10.613,79.457,9.54,82.967a1.5,1.5,0,0,0,2.869.877c.725-2.372,2.816-3.845,4.662-3.281s2.757,2.955,2.031,5.328a1.5,1.5,0,0,0,2.87.877A7.443,7.443,0,0,0,19.6,78.519a28.739,28.739,0,0,1,12.427-12.94,20.1,20.1,0,0,1,3.711-5.16C35.607,60.473,35.478,60.522,35.346,60.578Z"/>
    </g>
    <g id="Head">
      <path id="Face" d="M72.909,20.5h-44a4,4,0,0,0-4,4v24a4,4,0,0,0,4,4h44a4,4,0,0,0,4-4v-24A4,4,0,0,0,72.909,20.5Zm-29,26h-2v-2h2Zm4,0h-2v-2h2Zm4,0h-2v-2h2Zm-15-8a6,6,0,0,1,0-12h19l-4,12Zm19,8h-2v-2h2Zm4,0h-2v-2h2Zm-4-8h-2l4-12h2Zm13.24-1.76a5.944,5.944,0,0,1-4.24,1.76h-4l4-12a6,6,0,0,1,6,6A5.944,5.944,0,0,1,69.149,36.742Z"/>
      <path id="Ear-right" d="M78.909,32.623h0a4,4,0,0,1,4,4h0a4,4,0,0,1-4,4h0v-8Z"/>
      <path id="Ear-left" d="M22.909,32.526h0v8h0a4,4,0,0,1-4-4h0A4,4,0,0,1,22.909,32.526Z"/>
      <g id="Top">
        <path id="Antenna-left" d="M40.909,10.5a4,4,0,1,0-5,3.859V18.5h2V14.361A3.99,3.99,0,0,0,40.909,10.5Z"/>
        <path id="Antenna-right" d="M68.909,10.5a4,4,0,1,0-5,3.859V18.5h2V14.361A3.99,3.99,0,0,0,68.909,10.5Z"/>
        <path id="Signal" d="M52.909,15.5a1,1,0,0,1-.894-.552L48.909,8.738,47.8,10.95a1,1,0,0,1-.9.552h-2a1,1,0,1,1,0-2h1.382l1.724-3.447a1.041,1.041,0,0,1,1.789,0l3.1,6.211,1.106-2.211a1,1,0,0,1,.894-.553h2a1,1,0,1,1,0,2H55.528L53.8,14.95A1,1,0,0,1,52.909,15.5Z"/>
      </g>
    </g>
  </g>
</svg>
